<svg version="1.1" id="Layer_1" xmlns="http://www.w3.org/2000/svg" xmlns:xlink="http://www.w3.org/1999/xlink" x="0px" y="0px"
	 width="100%" viewBox="0 0 500 500" enable-background="new 0 0 500 500" xml:space="preserve">
<path fill="#000000" opacity="1.000000" stroke="none" 
	d="
M279.000000,501.000000 
	C186.000015,501.000000 93.500046,501.000000 1.000050,501.000000 
	C1.000033,334.333405 1.000033,167.666794 1.000017,1.000139 
	C167.666565,1.000093 334.333130,1.000093 500.999756,1.000046 
	C500.999847,167.666519 500.999847,334.333038 500.999939,500.999786 
	C427.166656,501.000000 353.333344,501.000000 279.000000,501.000000 
M188.092499,320.051819 
	C189.214981,320.002563 190.557281,320.337891 191.424622,319.842194 
	C197.469681,316.387299 203.798981,313.267395 209.326111,309.097626 
	C229.654709,293.761383 242.119659,273.663300 244.605225,247.967728 
	C247.361572,219.472748 233.416183,191.788391 204.186157,183.845901 
	C182.638580,177.990906 163.854538,183.920166 148.672531,199.693268 
	C136.344391,212.501373 132.705139,228.742447 135.453140,246.016632 
	C138.361359,264.298035 148.729996,277.493866 165.287842,285.864105 
	C174.884781,290.715515 185.062546,292.275177 195.892227,291.439545 
	C196.020599,292.557373 196.209976,293.355682 196.188034,294.148163 
	C195.984863,301.488647 192.668335,307.518524 188.097061,312.975250 
	C186.285126,315.138153 184.533432,317.187378 188.092499,320.051819 
M260.955170,257.512543 
	C272.338440,281.961182 292.083160,292.566376 318.861908,291.737976 
	C318.561798,294.230133 318.790710,296.400818 318.005127,298.103333 
	C315.467316,303.603302 312.427490,308.871338 309.880463,314.367462 
	C309.248779,315.730530 309.179108,317.980164 309.919525,319.140625 
	C310.443909,319.962555 313.088531,320.290131 314.236633,319.723602 
	C326.544037,313.650360 337.763641,305.928497 346.748413,295.494019 
	C361.737091,278.086914 368.724670,257.844147 367.006927,234.768799 
	C365.614960,216.070160 357.631165,201.184616 341.821014,190.721115 
	C325.141937,179.682541 307.409698,178.988632 289.538055,186.577103 
	C275.353271,192.600098 265.388428,203.378510 260.222992,218.134476 
	C255.702911,231.046906 256.204895,243.945419 260.955170,257.512543 
z"/>
<path fill="#F7F7F7" opacity="1.000000" stroke="none" 
	d="
M187.753860,319.909485 
	C184.533432,317.187378 186.285126,315.138153 188.097061,312.975250 
	C192.668335,307.518524 195.984863,301.488647 196.188034,294.148163 
	C196.209976,293.355682 196.020599,292.557373 195.892227,291.439545 
	C185.062546,292.275177 174.884781,290.715515 165.287842,285.864105 
	C148.729996,277.493866 138.361359,264.298035 135.453140,246.016632 
	C132.705139,228.742447 136.344391,212.501373 148.672531,199.693268 
	C163.854538,183.920166 182.638580,177.990906 204.186157,183.845901 
	C233.416183,191.788391 247.361572,219.472748 244.605225,247.967728 
	C242.119659,273.663300 229.654709,293.761383 209.326111,309.097626 
	C203.798981,313.267395 197.469681,316.387299 191.424622,319.842194 
	C190.557281,320.337891 189.214981,320.002563 187.753860,319.909485 
M230.367523,272.796417 
	C236.944626,259.608948 239.008606,245.728699 236.924789,231.159378 
	C233.132996,204.648331 211.822769,187.204102 185.361786,189.033295 
	C155.852341,191.073242 134.530487,222.048172 143.323288,250.103958 
	C150.551620,273.167847 172.473618,287.276947 196.475601,284.132660 
	C200.720963,283.576508 203.089066,284.922424 203.028763,289.215027 
	C202.954697,294.488312 202.484863,299.756012 202.155457,305.566895 
	C213.994385,297.066528 223.965607,287.023529 230.367523,272.796417 
z"/>
<path fill="#F6F6F6" opacity="1.000000" stroke="none" 
	d="
M260.880676,257.131927 
	C256.204895,243.945419 255.702911,231.046906 260.222992,218.134476 
	C265.388428,203.378510 275.353271,192.600098 289.538055,186.577103 
	C307.409698,178.988632 325.141937,179.682541 341.821014,190.721115 
	C357.631165,201.184616 365.614960,216.070160 367.006927,234.768799 
	C368.724670,257.844147 361.737091,278.086914 346.748413,295.494019 
	C337.763641,305.928497 326.544037,313.650360 314.236633,319.723602 
	C313.088531,320.290131 310.443909,319.962555 309.919525,319.140625 
	C309.179108,317.980164 309.248779,315.730530 309.880463,314.367462 
	C312.427490,308.871338 315.467316,303.603302 318.005127,298.103333 
	C318.790710,296.400818 318.561798,294.230133 318.861908,291.737976 
	C292.083160,292.566376 272.338440,281.961182 260.880676,257.131927 
M334.904938,297.431427 
	C353.011688,279.928711 362.465179,258.925873 359.913544,233.466949 
	C358.091705,215.289261 348.870514,201.534576 332.493317,193.373459 
	C315.875977,185.092682 292.245209,188.365509 278.171234,202.889725 
	C263.678558,217.846069 260.529327,240.742920 268.739716,257.257690 
	C278.180237,276.246796 297.992096,286.875122 318.826904,284.142365 
	C322.692535,283.635376 325.172760,284.584320 325.292969,288.756531 
	C325.447021,294.102295 325.330383,299.455811 325.330383,305.103882 
	C328.021484,302.947723 331.186646,300.411743 334.904938,297.431427 
z"/>
<path fill="#010101" opacity="1.000000" stroke="none" 
	d="
M230.200165,273.134216 
	C223.965607,287.023529 213.994385,297.066528 202.155457,305.566895 
	C202.484863,299.756012 202.954697,294.488312 203.028763,289.215027 
	C203.089066,284.922424 200.720963,283.576508 196.475601,284.132660 
	C172.473618,287.276947 150.551620,273.167847 143.323288,250.103958 
	C134.530487,222.048172 155.852341,191.073242 185.361786,189.033295 
	C211.822769,187.204102 233.132996,204.648331 236.924789,231.159378 
	C239.008606,245.728699 236.944626,259.608948 230.200165,273.134216 
z"/>
<path fill="#010101" opacity="1.000000" stroke="none" 
	d="
M334.628357,297.653625 
	C331.186646,300.411743 328.021484,302.947723 325.330383,305.103882 
	C325.330383,299.455811 325.447021,294.102295 325.292969,288.756531 
	C325.172760,284.584320 322.692535,283.635376 318.826904,284.142365 
	C297.992096,286.875122 278.180237,276.246796 268.739716,257.257690 
	C260.529327,240.742920 263.678558,217.846069 278.171234,202.889725 
	C292.245209,188.365509 315.875977,185.092682 332.493317,193.373459 
	C348.870514,201.534576 358.091705,215.289261 359.913544,233.466949 
	C362.465179,258.925873 353.011688,279.928711 334.628357,297.653625 
z"/>
</svg>